<svg width="366" height="305" viewBox="0 0 366 305" fill="none" xmlns="http://www.w3.org/2000/svg">
<path d="M182.699 60.8996L304.498 182.699L218.054 269.143C198.528 288.669 166.87 288.669 147.343 269.143L60.8995 182.699L182.699 60.8996Z" fill="#4FC2EA"/>
<circle cx="121.799" cy="121.799" r="86.125" transform="rotate(-45 121.799 121.799)" fill="#4FC2EA"/>
<circle cx="243.598" cy="121.799" r="86.125" transform="rotate(-45 243.598 121.799)" fill="#4FC2EA"/>
<rect x="126.623" y="108.115" width="40.1222" height="50.1528" fill="white"/>
<circle cx="146.685" cy="108.115" r="20.0611" fill="white"/>
<path d="M114.787 158.268C114.787 162.457 115.612 166.605 117.215 170.475C118.818 174.345 121.168 177.861 124.13 180.823C127.092 183.785 130.608 186.134 134.478 187.737C138.348 189.34 142.496 190.165 146.685 190.165C150.873 190.165 155.021 189.34 158.891 187.737C162.761 186.134 166.277 183.785 169.239 180.823C172.201 177.861 174.551 174.345 176.154 170.475C177.757 166.605 178.582 162.457 178.582 158.268L173.797 158.268C173.797 161.829 173.096 165.354 171.733 168.644C170.371 171.933 168.374 174.922 165.856 177.44C163.338 179.957 160.35 181.954 157.06 183.317C153.771 184.679 150.245 185.381 146.685 185.381C143.124 185.381 139.599 184.679 136.309 183.317C133.02 181.954 130.031 179.957 127.513 177.44C124.995 174.922 122.998 171.933 121.636 168.644C120.273 165.354 119.572 161.829 119.572 158.268L114.787 158.268Z" fill="white"/>
<mask id="path-7-inside-1" fill="white">
<path fill-rule="evenodd" clip-rule="evenodd" d="M166.746 133.192H126.623V158.268C126.623 169.348 135.605 178.329 146.685 178.329C157.764 178.329 166.746 169.348 166.746 158.268V133.192Z"/>
</mask>
<path fill-rule="evenodd" clip-rule="evenodd" d="M166.746 133.192H126.623V158.268C126.623 169.348 135.605 178.329 146.685 178.329C157.764 178.329 166.746 169.348 166.746 158.268V133.192Z" fill="#4FC2EA"/>
<path d="M126.623 133.192V130.192H123.623V133.192H126.623ZM166.746 133.192H169.746V130.192H166.746V133.192ZM126.623 136.192H166.746V130.192H126.623V136.192ZM129.623 158.268V133.192H123.623V158.268H129.623ZM146.685 175.329C137.262 175.329 129.623 167.691 129.623 158.268H123.623C123.623 171.004 133.948 181.329 146.685 181.329V175.329ZM163.746 158.268C163.746 167.691 156.107 175.329 146.685 175.329V181.329C159.421 181.329 169.746 171.004 169.746 158.268H163.746ZM163.746 133.192V158.268H169.746V133.192H163.746Z" fill="white" mask="url(#path-7-inside-1)"/>
<rect x="144.678" y="187.357" width="4.01222" height="30.0917" fill="white"/>
<rect x="134.648" y="213.436" width="24.0733" height="4.01222" fill="white"/>
<rect x="238.677" y="158.268" width="40.1222" height="50.1528" transform="rotate(-180 238.677 158.268)" fill="white"/>
<circle cx="218.616" cy="158.268" r="20.0611" transform="rotate(-180 218.616 158.268)" fill="white"/>
<path d="M186.719 158.268C186.719 162.457 187.544 166.605 189.147 170.475C190.75 174.345 193.1 177.861 196.062 180.823C199.023 183.785 202.54 186.134 206.41 187.737C210.28 189.34 214.427 190.165 218.616 190.165C222.805 190.165 226.953 189.34 230.823 187.737C234.693 186.134 238.209 183.785 241.171 180.823C244.133 177.861 246.482 174.345 248.085 170.475C249.688 166.605 250.513 162.457 250.513 158.268L245.729 158.268C245.729 161.829 245.028 165.354 243.665 168.644C242.302 171.933 240.305 174.922 237.788 177.44C235.27 179.957 232.281 181.954 228.992 183.317C225.702 184.679 222.177 185.381 218.616 185.381C215.056 185.381 211.53 184.679 208.241 183.317C204.951 181.954 201.962 179.957 199.445 177.44C196.927 174.922 194.93 171.933 193.567 168.644C192.205 165.354 191.504 161.829 191.504 158.268L186.719 158.268Z" fill="white"/>
<mask id="path-14-inside-2" fill="white">
<path fill-rule="evenodd" clip-rule="evenodd" d="M218.616 88.0542C207.537 88.0542 198.555 97.0359 198.555 108.115C198.555 108.118 198.555 108.122 198.555 108.125L198.555 133.192L238.677 133.192V108.115C238.677 97.0359 229.696 88.0542 218.616 88.0542Z"/>
</mask>
<path fill-rule="evenodd" clip-rule="evenodd" d="M218.616 88.0542C207.537 88.0542 198.555 97.0359 198.555 108.115C198.555 108.118 198.555 108.122 198.555 108.125L198.555 133.192L238.677 133.192V108.115C238.677 97.0359 229.696 88.0542 218.616 88.0542Z" fill="#4FC2EA"/>
<path d="M198.555 108.115L195.555 108.115V108.115H198.555ZM218.616 88.0542L218.616 91.0542H218.616V88.0542ZM198.555 108.125L201.555 108.125L201.555 108.123L198.555 108.125ZM198.555 133.192L195.555 133.192L195.555 136.192L198.555 136.192L198.555 133.192ZM238.677 133.192L238.677 136.192L241.677 136.192V133.192H238.677ZM238.677 108.115L235.677 108.115V108.115H238.677ZM201.555 108.115C201.555 98.6927 209.194 91.0542 218.616 91.0542L218.616 85.0542C205.88 85.0542 195.555 95.379 195.555 108.115L201.555 108.115ZM201.555 108.123C201.555 108.121 201.555 108.118 201.555 108.115H195.555C195.555 108.119 195.555 108.123 195.555 108.126L201.555 108.123ZM201.555 133.192L201.555 108.125L195.555 108.125L195.555 133.192L201.555 133.192ZM238.677 130.192L198.555 130.192L198.555 136.192L238.677 136.192L238.677 130.192ZM235.677 108.115V133.192H241.677V108.115H235.677ZM218.616 91.0542C228.039 91.0542 235.677 98.6927 235.677 108.115L241.677 108.115C241.677 95.379 231.352 85.0542 218.616 85.0542V91.0542Z" fill="white" mask="url(#path-14-inside-2)"/>
<path d="M198.555 108.115L195.555 108.115V108.115H198.555ZM218.616 88.0542L218.616 91.0542H218.616V88.0542ZM198.555 108.125L201.555 108.125L201.555 108.123L198.555 108.125ZM198.555 133.192L195.555 133.192L195.555 136.192L198.555 136.192L198.555 133.192ZM238.677 133.192L238.677 136.192L241.677 136.192V133.192H238.677ZM238.677 108.115L235.677 108.115V108.115H238.677ZM201.555 108.115C201.555 98.6927 209.194 91.0542 218.616 91.0542L218.616 85.0542C205.88 85.0542 195.555 95.379 195.555 108.115L201.555 108.115ZM201.555 108.123C201.555 108.121 201.555 108.118 201.555 108.115H195.555C195.555 108.119 195.555 108.123 195.555 108.126L201.555 108.123ZM201.555 133.192L201.555 108.125L195.555 108.125L195.555 133.192L201.555 133.192ZM238.677 130.192L198.555 130.192L198.555 136.192L238.677 136.192L238.677 130.192ZM235.677 108.115V133.192H241.677V108.115H235.677ZM218.616 91.0542C228.039 91.0542 235.677 98.6927 235.677 108.115L241.677 108.115C241.677 95.379 231.352 85.0542 218.616 85.0542V91.0542Z" fill="url(#paint0_linear)" mask="url(#path-14-inside-2)"/>
<rect x="216.61" y="187.357" width="4.01222" height="30.0917" fill="white"/>
<rect x="206.58" y="213.436" width="24.0733" height="4.01222" fill="white"/>
<defs>
<linearGradient id="paint0_linear" x1="218.616" y1="133.192" x2="218.616" y2="108.115" gradientUnits="userSpaceOnUse">
<stop stop-color="white"/>
<stop offset="1" stop-color="white" stop-opacity="0"/>
</linearGradient>
</defs>
</svg>
